# xmcd
#
# Track frame offsets: 
#        150
#        12034
#        24145
#        40346
#        53165
#        66195
#        76365
#        86118
#        98717
#        111369
#        122194
#        135950
#        145144
#        156123
#        167556
#        180015
#        190571
#        204699
#        214366
#        228938
#
# Disc length: 3240 seconds
#
# Revision: 0
# Processed by: cddbd v1.5.2PL0 Copyright (c) Steve Scherf et al.
# Submitted via: ExactAudioCopy v0.99pb4
#
DISCID=000ca614
DTITLE=Various Artist - 100 Essential Tracks - 60s - CD4
DYEAR=2010
DGENRE=60s
TTITLE0=Henry Mancini - The Pink Panther Theme
TTITLE1=Bobby Vinton - Halfway To Paradise
TTITLE2=Jose Feliciano - Light My Fire
TTITLE3=Lee Dorsey - Working In The Coalmine
TTITLE4=Marty Robbins - Devil Woman
TTITLE5=Jim Reeves - Is It Really Over
TTITLE6=Elvis Presley - She's Not You
TTITLE7=Dolly Parton - In The Ghetto
TTITLE8=Bobby Vinton - Blue Velvet
TTITLE9=Percy Faith - Theme From A Summer Place
TTITLE10=Aretha Franklin - My Guy
TTITLE11=Bobby Vee - Sharing You
TTITLE12=Peter And Gordon - Lady Godiva
TTITLE13=Jan and Dean - The Little Old Lady (From Pasadena)
TTITLE14=Fats Domino - It Keeps Rainin'
TTITLE15=Cliff Bennett and The Rebel Rousers - One Way Love
TTITLE16=Los Indios Tabajaras - Maria Elena
TTITLE17=Floyd Cramer - On The Rebound
TTITLE18=Lorne Greene - Ringo
TTITLE19=Merrilee Rush - Angel Of The Morning
EXTD=
EXTT0=
EXTT1=
EXTT2=
EXTT3=
EXTT4=
EXTT5=
EXTT6=
EXTT7=
EXTT8=
EXTT9=
EXTT10=
EXTT11=
EXTT12=
EXTT13=
EXTT14=
EXTT15=
EXTT16=
EXTT17=
EXTT18=
EXTT19=
PLAYORDER=
